<?xml version="1.0" encoding="utf-8"?>
<!-- Generator: Adobe Illustrator 26.0.3, SVG Export Plug-In . SVG Version: 6.00 Build 0)  -->
<svg version="1.1" id="Layer_1" xmlns="http://www.w3.org/2000/svg" xmlns:xlink="http://www.w3.org/1999/xlink" x="0px" y="0px"
	 viewBox="0 0 360 360" style="enable-background:new 0 0 360 360;" xml:space="preserve">
<style type="text/css">
	.st0{fill:#BF6F7E;}
</style>
<path class="st0" d="M101.5,117.2H29c-5.5,0-10.1-4.5-10.1-10.1V34.7c0-5.5,4.5-10.1,10.1-10.1h72.5c5.5,0,10.1,4.5,10.1,10.1v72.5
	C111.6,112.7,107.1,117.2,101.5,117.2z"/>
<path class="st0" d="M216.2,117.2h-72.5c-5.5,0-10.1-4.5-10.1-10.1V34.7c0-5.5,4.5-10.1,10.1-10.1h72.5c5.5,0,10.1,4.5,10.1,10.1
	v72.5C226.3,112.7,221.8,117.2,216.2,117.2z"/>
<path class="st0" d="M331,117.2h-72.5c-5.5,0-10.1-4.5-10.1-10.1V34.7c0-5.5,4.5-10.1,10.1-10.1H331c5.5,0,10.1,4.5,10.1,10.1v72.5
	C341,112.7,336.5,117.2,331,117.2z"/>
<path class="st0" d="M101.5,226.3H29c-5.5,0-10.1-4.5-10.1-10.1v-72.5c0-5.5,4.5-10.1,10.1-10.1h72.5c5.5,0,10.1,4.5,10.1,10.1v72.5
	C111.6,221.8,107.1,226.3,101.5,226.3z"/>
<path class="st0" d="M216.2,226.3h-72.5c-5.5,0-10.1-4.5-10.1-10.1v-72.5c0-5.5,4.5-10.1,10.1-10.1h72.5c5.5,0,10.1,4.5,10.1,10.1
	v72.5C226.3,221.8,221.8,226.3,216.2,226.3z"/>
<path class="st0" d="M331,226.3h-72.5c-5.5,0-10.1-4.5-10.1-10.1v-72.5c0-5.5,4.5-10.1,10.1-10.1H331c5.5,0,10.1,4.5,10.1,10.1v72.5
	C341,221.8,336.5,226.3,331,226.3z"/>
<path class="st0" d="M101.5,335.4H29c-5.5,0-10.1-4.5-10.1-10.1v-72.5c0-5.5,4.5-10.1,10.1-10.1h72.5c5.5,0,10.1,4.5,10.1,10.1v72.5
	C111.6,330.9,107.1,335.4,101.5,335.4z"/>
<path class="st0" d="M216.2,335.4h-72.5c-5.5,0-10.1-4.5-10.1-10.1v-72.5c0-5.5,4.5-10.1,10.1-10.1h72.5c5.5,0,10.1,4.5,10.1,10.1
	v72.5C226.3,330.9,221.8,335.4,216.2,335.4z"/>
<path class="st0" d="M331,335.4h-72.5c-5.5,0-10.1-4.5-10.1-10.1v-72.5c0-5.5,4.5-10.1,10.1-10.1H331c5.5,0,10.1,4.5,10.1,10.1v72.5
	C341,330.9,336.5,335.4,331,335.4z"/>
</svg>
