<?xml version="1.0" encoding="utf-8"?>
<!-- Generator: Adobe Illustrator 26.0.3, SVG Export Plug-In . SVG Version: 6.00 Build 0)  -->
<svg version="1.1" id="Layer_1" xmlns="http://www.w3.org/2000/svg" xmlns:xlink="http://www.w3.org/1999/xlink" x="0px" y="0px"
	 viewBox="0 0 360 360" style="enable-background:new 0 0 360 360;" xml:space="preserve">
<style type="text/css">
	.st0{fill:#BF6F7E;}
</style>
<g>
	<path class="st0" d="M53.9,110.4H36.2c-15.9,0-28.9-13-28.9-28.9V63.7c0-15.9,13-28.9,28.9-28.9h17.7c15.9,0,28.9,13,28.9,28.9
		v17.7C82.9,97.4,69.9,110.4,53.9,110.4z"/>
	<rect x="113.9" y="34.8" class="st0" width="238.8" height="75.6"/>
	<path class="st0" d="M53.9,217.8H36.2c-15.9,0-28.9-13-28.9-28.9v-17.7c0-15.9,13-28.9,28.9-28.9h17.7c15.9,0,28.9,13,28.9,28.9
		v17.7C82.9,204.8,69.9,217.8,53.9,217.8z"/>
	<rect x="113.9" y="142.2" class="st0" width="238.8" height="75.6"/>
	<path class="st0" d="M53.9,325.2H36.2c-15.9,0-28.9-13-28.9-28.9v-17.7c0-15.9,13-28.9,28.9-28.9h17.7c15.9,0,28.9,13,28.9,28.9
		v17.7C82.9,312.2,69.9,325.2,53.9,325.2z"/>
	<rect x="113.9" y="249.6" class="st0" width="238.8" height="75.6"/>
</g>
</svg>
